<mxfile host="app.diagrams.net" modified="2024-05-10T07:31:25.811Z" agent="Mozilla/5.0 (Windows NT 10.0; Win64; x64) AppleWebKit/537.36 (KHTML, like Gecko) Chrome/124.0.0.0 Safari/537.36" etag="bqHPG-4B67C9Igw9mBb0" version="24.3.1" type="device">
  <diagram name="Page-1" id="B1jgi6M0TtvnmPDyHT-1">
    <mxGraphModel dx="1050" dy="522" grid="1" gridSize="10" guides="1" tooltips="1" connect="1" arrows="1" fold="1" page="1" pageScale="1" pageWidth="850" pageHeight="1100" math="0" shadow="0">
      <root>
        <mxCell id="0" />
        <mxCell id="1" parent="0" />
        <mxCell id="uBIRU1kBDGr6ckZoqK9c-3" style="edgeStyle=orthogonalEdgeStyle;rounded=0;orthogonalLoop=1;jettySize=auto;html=1;entryX=0.5;entryY=0;entryDx=0;entryDy=0;" edge="1" parent="1" source="uBIRU1kBDGr6ckZoqK9c-1" target="uBIRU1kBDGr6ckZoqK9c-2">
          <mxGeometry relative="1" as="geometry" />
        </mxCell>
        <mxCell id="uBIRU1kBDGr6ckZoqK9c-1" value="" style="image;html=1;image=img/lib/clip_art/networking/Router_Icon_128x128.png" vertex="1" parent="1">
          <mxGeometry x="340" y="70" width="80" height="80" as="geometry" />
        </mxCell>
        <mxCell id="uBIRU1kBDGr6ckZoqK9c-2" value="" style="ellipse;whiteSpace=wrap;html=1;" vertex="1" parent="1">
          <mxGeometry x="340" y="390" width="120" height="80" as="geometry" />
        </mxCell>
      </root>
    </mxGraphModel>
  </diagram>
</mxfile>
